<svg version="1.1" xmlns="http://www.w3.org/2000/svg" xmlns:xlink="http://www.w3.org/1999/xlink" width="2443.033203125" height="956"><defs/><g><g transform="translate(-350,-30) scale(1,1)"><rect fill="#C0C0C0" stroke="none" x="1295" y="47" width="433.556640625" height="340" opacity="0.2"/></g><g transform="translate(-350,-30) scale(1,1)"><rect fill="#ffffff" stroke="none" x="1288" y="40" width="433.556640625" height="340"/></g><g transform="translate(-350,-30) scale(1,1)"><path fill="none" stroke="#000000" d="M 1288 40 L 1721.556640625 40 L 1721.556640625 380 L 1288 380 L 1288 40 Z Z" stroke-miterlimit="10"/></g><g transform="translate(-350,-30) scale(1,1)"><path fill="none" stroke="#000000" d="M 1288 65 L 1721.556640625 65" stroke-miterlimit="10"/></g><g transform="translate(-350,-30) scale(1,1)"><path fill="none" stroke="#000000" d="M 1288 133 L 1721.556640625 133" stroke-miterlimit="10"/></g><g transform="translate(-350,-30) scale(1,1)"><g><path fill="none" stroke="none"/><text fill="#000000" stroke="none" font-family="Arial" font-size="13px" font-style="normal" font-weight="bold" text-decoration="none" x="1492.854248046875" y="59.5">Dog</text></g></g><g transform="translate(-350,-30) scale(1,1)"><g><path fill="none" stroke="none"/><text fill="#000000" stroke="none" font-family="Arial" font-size="13px" font-style="normal" font-weight="normal" text-decoration="none" x="1293" y="82.5">-name: string</text></g></g><g transform="translate(-350,-30) scale(1,1)"><g><path fill="none" stroke="none"/><text fill="#000000" stroke="none" font-family="Arial" font-size="13px" font-style="normal" font-weight="normal" text-decoration="none" x="1293" y="97.5">-breed: string</text></g></g><g transform="translate(-350,-30) scale(1,1)"><g><path fill="none" stroke="none"/><text fill="#000000" stroke="none" font-family="Arial" font-size="13px" font-style="normal" font-weight="normal" text-decoration="none" x="1293" y="112.5">-age: age</text></g></g><g transform="translate(-350,-30) scale(1,1)"><g><path fill="none" stroke="none"/><text fill="#000000" stroke="none" font-family="Arial" font-size="13px" font-style="normal" font-weight="normal" text-decoration="none" x="1293" y="127.5">-photo: string</text></g></g><g transform="translate(-350,-30) scale(1,1)"><g><path fill="none" stroke="none"/><text fill="#000000" stroke="none" font-family="Arial" font-size="13px" font-style="normal" font-weight="normal" text-decoration="none" x="1293" y="150.5">+Dog()</text></g></g><g transform="translate(-350,-30) scale(1,1)"><g><path fill="none" stroke="none"/><text fill="#000000" stroke="none" font-family="Arial" font-size="13px" font-style="normal" font-weight="normal" text-decoration="none" x="1293" y="165.5">+Dog(string &amp;dogBreed, string &amp;dogName, int dogAge, string &amp;dogPhoto)</text></g></g><g transform="translate(-350,-30) scale(1,1)"><g><path fill="none" stroke="none"/><text fill="#000000" stroke="none" font-family="Arial" font-size="13px" font-style="normal" font-weight="normal" text-decoration="none" x="1293" y="180.5">+Dog(const Dog&amp; dog)</text></g></g><g transform="translate(-350,-30) scale(1,1)"><g><path fill="none" stroke="none"/><text fill="#000000" stroke="none" font-family="Arial" font-size="13px" font-style="normal" font-weight="normal" text-decoration="none" x="1293" y="195.5">+~Dog()</text></g></g><g transform="translate(-350,-30) scale(1,1)"><g><path fill="none" stroke="none"/><text fill="#000000" stroke="none" font-family="Arial" font-size="13px" font-style="normal" font-weight="normal" text-decoration="none" x="1293" y="210.5">+setAge(int age): void</text></g></g><g transform="translate(-350,-30) scale(1,1)"><g><path fill="none" stroke="none"/><text fill="#000000" stroke="none" font-family="Arial" font-size="13px" font-style="normal" font-weight="normal" text-decoration="none" x="1293" y="225.5">+operator==(const Dog&amp; dog): bool</text></g></g><g transform="translate(-350,-30) scale(1,1)"><g><path fill="none" stroke="none"/><text fill="#000000" stroke="none" font-family="Arial" font-size="13px" font-style="normal" font-weight="normal" text-decoration="none" x="1293" y="240.5">+setPhoto(string newPhoto): void</text></g></g><g transform="translate(-350,-30) scale(1,1)"><g><path fill="none" stroke="none"/><text fill="#000000" stroke="none" font-family="Arial" font-size="13px" font-style="normal" font-weight="normal" text-decoration="none" x="1293" y="255.5">+setBreed(string newBreed): void</text></g></g><g transform="translate(-350,-30) scale(1,1)"><g><path fill="none" stroke="none"/><text fill="#000000" stroke="none" font-family="Arial" font-size="13px" font-style="normal" font-weight="normal" text-decoration="none" x="1293" y="270.5">+setName(string newName): void</text></g></g><g transform="translate(-350,-30) scale(1,1)"><g><path fill="none" stroke="none"/><text fill="#000000" stroke="none" font-family="Arial" font-size="13px" font-style="normal" font-weight="normal" text-decoration="none" x="1293" y="285.5">+showPicture(): void</text></g></g><g transform="translate(-350,-30) scale(1,1)"><g><path fill="none" stroke="none"/><text fill="#000000" stroke="none" font-family="Arial" font-size="13px" font-style="normal" font-weight="normal" text-decoration="none" x="1293" y="300.5">+getBreed(): string</text></g></g><g transform="translate(-350,-30) scale(1,1)"><g><path fill="none" stroke="none"/><text fill="#000000" stroke="none" font-family="Arial" font-size="13px" font-style="normal" font-weight="normal" text-decoration="none" x="1293" y="315.5">+getName(): string</text></g></g><g transform="translate(-350,-30) scale(1,1)"><g><path fill="none" stroke="none"/><text fill="#000000" stroke="none" font-family="Arial" font-size="13px" font-style="normal" font-weight="normal" text-decoration="none" x="1293" y="330.5">+getPhoto(): string</text></g></g><g transform="translate(-350,-30) scale(1,1)"><g><path fill="none" stroke="none"/><text fill="#000000" stroke="none" font-family="Arial" font-size="13px" font-style="normal" font-weight="normal" text-decoration="none" x="1293" y="345.5">+getAge(): int</text></g></g><g transform="translate(-350,-30) scale(1,1)"><g><path fill="none" stroke="none"/><text fill="#000000" stroke="none" font-family="Arial" font-size="13px" font-style="normal" font-weight="normal" text-decoration="none" x="1293" y="360.5">+operator&gt;&gt;(istream&amp; is, Dog&amp; d): istream&amp;</text></g></g><g transform="translate(-350,-30) scale(1,1)"><g><path fill="none" stroke="none"/><text fill="#000000" stroke="none" font-family="Arial" font-size="13px" font-style="normal" font-weight="normal" text-decoration="none" x="1293" y="375.5">+operator&lt;&lt;(ostream&amp; os, const Dog&amp; d): ostream&amp;</text></g></g><g transform="translate(-350,-30) scale(1,1)"><rect fill="#C0C0C0" stroke="none" x="1703" y="679" width="614.17919921875" height="145" opacity="0.2"/></g><g transform="translate(-350,-30) scale(1,1)"><rect fill="#ffffff" stroke="none" x="1696" y="672" width="614.17919921875" height="145"/></g><g transform="translate(-350,-30) scale(1,1)"><path fill="none" stroke="#000000" d="M 1696 672 L 2310.17919921875 672 L 2310.17919921875 817 L 1696 817 L 1696 672 Z Z" stroke-miterlimit="10"/></g><g transform="translate(-350,-30) scale(1,1)"><path fill="none" stroke="#000000" d="M 1696 697 L 2310.17919921875 697" stroke-miterlimit="10"/></g><g transform="translate(-350,-30) scale(1,1)"><path fill="none" stroke="#000000" d="M 1696 720 L 2310.17919921875 720" stroke-miterlimit="10"/></g><g transform="translate(-350,-30) scale(1,1)"><g><path fill="none" stroke="none"/><text fill="#000000" stroke="none" font-family="Arial" font-size="13px" font-style="normal" font-weight="bold" text-decoration="none" x="1974.912353515625" y="691.5">Controller</text></g></g><g transform="translate(-350,-30) scale(1,1)"><g><path fill="none" stroke="none"/><text fill="#000000" stroke="none" font-family="Arial" font-size="13px" font-style="normal" font-weight="normal" text-decoration="none" x="1701" y="714.5">+repo: FileRepository*</text></g></g><g transform="translate(-350,-30) scale(1,1)"><g><path fill="none" stroke="none"/><text fill="#000000" stroke="none" font-family="Arial" font-size="13px" font-style="normal" font-weight="normal" text-decoration="none" x="1701" y="737.5">+Controller(FileRepository* repo)</text></g></g><g transform="translate(-350,-30) scale(1,1)"><g><path fill="none" stroke="none"/><text fill="#000000" stroke="none" font-family="Arial" font-size="13px" font-style="normal" font-weight="normal" text-decoration="none" x="1701" y="752.5">+~Controller()</text></g></g><g transform="translate(-350,-30) scale(1,1)"><g><path fill="none" stroke="none"/><text fill="#000000" stroke="none" font-family="Arial" font-size="13px" font-style="normal" font-weight="normal" text-decoration="none" x="1701" y="767.5">+add(string breed, string name, int age, string photo): void</text></g></g><g transform="translate(-350,-30) scale(1,1)"><g><path fill="none" stroke="none"/><text fill="#000000" stroke="none" font-family="Arial" font-size="13px" font-style="normal" font-weight="normal" text-decoration="none" x="1701" y="782.5">+remove(string breed, string name): void</text></g></g><g transform="translate(-350,-30) scale(1,1)"><g><path fill="none" stroke="none"/><text fill="#000000" stroke="none" font-family="Arial" font-size="13px" font-style="normal" font-weight="normal" text-decoration="none" x="1701" y="797.5">+update(string breed, string name, int newAge, string newPhoto, string newBreed, string newName): void</text></g></g><g transform="translate(-350,-30) scale(1,1)"><g><path fill="none" stroke="none"/><text fill="#000000" stroke="none" font-family="Arial" font-size="13px" font-style="normal" font-weight="normal" text-decoration="none" x="1701" y="812.5">-find(string breed, string name): int</text></g></g><g transform="translate(-350,-30) scale(1,1)"><rect fill="#C0C0C0" stroke="none" x="1271" y="855" width="140.1298828125" height="128" opacity="0.2"/></g><g transform="translate(-350,-30) scale(1,1)"><rect fill="#ffffff" stroke="none" x="1264" y="848" width="140.1298828125" height="128"/></g><g transform="translate(-350,-30) scale(1,1)"><path fill="none" stroke="#000000" d="M 1264 848 L 1404.1298828125 848 L 1404.1298828125 976 L 1264 976 L 1264 848 Z Z" stroke-miterlimit="10"/></g><g transform="translate(-350,-30) scale(1,1)"><path fill="none" stroke="#000000" d="M 1264 873 L 1404.1298828125 873" stroke-miterlimit="10"/></g><g transform="translate(-350,-30) scale(1,1)"><path fill="none" stroke="#000000" d="M 1264 883 L 1404.1298828125 883" stroke-miterlimit="10"/></g><g transform="translate(-350,-30) scale(1,1)"><g><path fill="none" stroke="none"/><text fill="#000000" stroke="none" font-family="Arial" font-size="13px" font-style="normal" font-weight="bold" text-decoration="none" x="1310.5849609375" y="867.5">CSVList</text></g></g><g transform="translate(-350,-30) scale(1,1)"><g><path fill="none" stroke="none"/><text fill="#000000" stroke="none" font-family="Arial" font-size="13px" font-style="normal" font-weight="normal" text-decoration="none" x="1269" y="900.5">+CSVList()</text></g></g><g transform="translate(-350,-30) scale(1,1)"><g><path fill="none" stroke="none"/><text fill="#000000" stroke="none" font-family="Arial" font-size="13px" font-style="normal" font-weight="normal" text-decoration="none" x="1269" y="915.5">+CSVList(string name)</text></g></g><g transform="translate(-350,-30) scale(1,1)"><g><path fill="none" stroke="none"/><text fill="#000000" stroke="none" font-family="Arial" font-size="13px" font-style="normal" font-weight="normal" text-decoration="none" x="1269" y="930.5">+~CSVList()</text></g></g><g transform="translate(-350,-30) scale(1,1)"><g><path fill="none" stroke="none"/><text fill="#000000" stroke="none" font-family="Arial" font-size="13px" font-style="normal" font-weight="normal" text-decoration="none" x="1269" y="945.5">+writeToFile(): void</text></g></g><g transform="translate(-350,-30) scale(1,1)"><g><path fill="none" stroke="none"/><text fill="#000000" stroke="none" font-family="Arial" font-size="13px" font-style="normal" font-weight="normal" text-decoration="none" x="1269" y="960.5">+displayList(): void</text></g></g><g transform="translate(-350,-30) scale(1,1)"><rect fill="#C0C0C0" stroke="none" x="1919" y="271" width="402.04052734375" height="208" opacity="0.2"/></g><g transform="translate(-350,-30) scale(1,1)"><rect fill="#ffffff" stroke="none" x="1912" y="264" width="402.04052734375" height="208"/></g><g transform="translate(-350,-30) scale(1,1)"><path fill="none" stroke="#000000" d="M 1912 264 L 2314.04052734375 264 L 2314.04052734375 472 L 1912 472 L 1912 264 Z Z" stroke-miterlimit="10"/></g><g transform="translate(-350,-30) scale(1,1)"><path fill="none" stroke="#000000" d="M 1912 289 L 2314.04052734375 289" stroke-miterlimit="10"/></g><g transform="translate(-350,-30) scale(1,1)"><path fill="none" stroke="#000000" d="M 1912 312 L 2314.04052734375 312" stroke-miterlimit="10"/></g><g transform="translate(-350,-30) scale(1,1)"><g><path fill="none" stroke="none"/><text fill="#000000" stroke="none" font-family="Arial" font-size="13px" font-style="normal" font-weight="bold" text-decoration="none" x="2057.03076171875" y="283.5">DynamicVectorSTL</text></g></g><g transform="translate(-350,-30) scale(1,1)"><g><path fill="none" stroke="none"/><text fill="#000000" stroke="none" font-family="Arial" font-size="13px" font-style="normal" font-weight="normal" text-decoration="none" x="1917" y="306.5">+elems: vector&lt;TElem&gt;</text></g></g><g transform="translate(-350,-30) scale(1,1)"><g><path fill="none" stroke="none"/><text fill="#000000" stroke="none" font-family="Arial" font-size="13px" font-style="normal" font-weight="normal" text-decoration="none" x="1917" y="329.5">+DynamicVectorSTL()</text></g></g><g transform="translate(-350,-30) scale(1,1)"><g><path fill="none" stroke="none"/><text fill="#000000" stroke="none" font-family="Arial" font-size="13px" font-style="normal" font-weight="normal" text-decoration="none" x="1917" y="344.5">+~DynamicVectorSTL()</text></g></g><g transform="translate(-350,-30) scale(1,1)"><g><path fill="none" stroke="none"/><text fill="#000000" stroke="none" font-family="Arial" font-size="13px" font-style="normal" font-weight="normal" text-decoration="none" x="1917" y="359.5">+DynamicVectorSTL(DynamicVectorSTL&lt;TElem&gt;&amp; v)()</text></g></g><g transform="translate(-350,-30) scale(1,1)"><g><path fill="none" stroke="none"/><text fill="#000000" stroke="none" font-family="Arial" font-size="13px" font-style="normal" font-weight="normal" text-decoration="none" x="1917" y="374.5">+operator+(TElem&amp; e): DynamicVectorSTL</text></g></g><g transform="translate(-350,-30) scale(1,1)"><g><path fill="none" stroke="none"/><text fill="#000000" stroke="none" font-family="Arial" font-size="13px" font-style="normal" font-weight="normal" text-decoration="none" x="1917" y="389.5">+operator=(DynamicVectorSTL&amp; v): DynamicVectorSTL&lt;TElem&gt;</text></g></g><g transform="translate(-350,-30) scale(1,1)"><g><path fill="none" stroke="none"/><text fill="#000000" stroke="none" font-family="Arial" font-size="13px" font-style="normal" font-weight="normal" text-decoration="none" x="1917" y="404.5">+operator[](int i): TElem&amp;</text></g></g><g transform="translate(-350,-30) scale(1,1)"><g><path fill="none" stroke="none"/><text fill="#000000" stroke="none" font-family="Arial" font-size="13px" font-style="normal" font-weight="normal" text-decoration="none" x="1917" y="419.5">+remove(int index): void</text></g></g><g transform="translate(-350,-30) scale(1,1)"><g><path fill="none" stroke="none"/><text fill="#000000" stroke="none" font-family="Arial" font-size="13px" font-style="normal" font-weight="normal" text-decoration="none" x="1917" y="434.5">+update(int index, TElem&amp; e): void</text></g></g><g transform="translate(-350,-30) scale(1,1)"><g><path fill="none" stroke="none"/><text fill="#000000" stroke="none" font-family="Arial" font-size="13px" font-style="normal" font-weight="normal" text-decoration="none" x="1917" y="449.5">+getSize(): int</text></g></g><g transform="translate(-350,-30) scale(1,1)"><rect fill="#C0C0C0" stroke="none" x="367" y="391" width="255.02880859375" height="85" opacity="0.2"/></g><g transform="translate(-350,-30) scale(1,1)"><rect fill="#ffffff" stroke="none" x="360" y="384" width="255.02880859375" height="85"/></g><g transform="translate(-350,-30) scale(1,1)"><path fill="none" stroke="#000000" d="M 360 384 L 615.02880859375 384 L 615.02880859375 469 L 360 469 L 360 384 Z Z" stroke-miterlimit="10"/></g><g transform="translate(-350,-30) scale(1,1)"><path fill="none" stroke="#000000" d="M 360 409 L 615.02880859375 409" stroke-miterlimit="10"/></g><g transform="translate(-350,-30) scale(1,1)"><path fill="none" stroke="#000000" d="M 360 432 L 615.02880859375 432" stroke-miterlimit="10"/></g><g transform="translate(-350,-30) scale(1,1)"><g><path fill="none" stroke="none"/><text fill="#000000" stroke="none" font-family="Arial" font-size="13px" font-style="normal" font-weight="bold" text-decoration="none" x="419.94677734375" y="403.5">DuplicateDogException</text></g></g><g transform="translate(-350,-30) scale(1,1)"><g><path fill="none" stroke="none"/><text fill="#000000" stroke="none" font-family="Arial" font-size="13px" font-style="normal" font-weight="normal" text-decoration="none" x="365" y="426.5">+msg: string</text></g></g><g transform="translate(-350,-30) scale(1,1)"><g><path fill="none" stroke="none"/><text fill="#000000" stroke="none" font-family="Arial" font-size="13px" font-style="normal" font-weight="normal" text-decoration="none" x="365" y="449.5">+DuplicateDogException(const string msg)</text></g></g><g transform="translate(-350,-30) scale(1,1)"><g><path fill="none" stroke="none"/><text fill="#000000" stroke="none" font-family="Arial" font-size="13px" font-style="normal" font-weight="normal" text-decoration="none" x="365" y="464.5">+what(): char*</text></g></g><g transform="translate(-350,-30) scale(1,1)"><rect fill="#C0C0C0" stroke="none" x="447" y="271" width="257.92333984375" height="87" opacity="0.2"/></g><g transform="translate(-350,-30) scale(1,1)"><rect fill="#ffffff" stroke="none" x="440" y="264" width="257.92333984375" height="87"/></g><g transform="translate(-350,-30) scale(1,1)"><path fill="none" stroke="#000000" d="M 440 264 L 697.92333984375 264 L 697.92333984375 351 L 440 351 L 440 264 Z Z" stroke-miterlimit="10"/></g><g transform="translate(-350,-30) scale(1,1)"><path fill="none" stroke="#000000" d="M 440 289 L 697.92333984375 289" stroke-miterlimit="10"/></g><g transform="translate(-350,-30) scale(1,1)"><path fill="none" stroke="#000000" d="M 440 312 L 697.92333984375 312" stroke-miterlimit="10"/></g><g transform="translate(-350,-30) scale(1,1)"><g><path fill="none" stroke="none"/><text fill="#000000" stroke="none" font-family="Arial" font-size="13px" font-style="normal" font-weight="bold" text-decoration="none" x="499.94677734375" y="283.5">DogNotFoundException</text></g></g><g transform="translate(-350,-30) scale(1,1)"><g><path fill="none" stroke="none"/><text fill="#000000" stroke="none" font-family="Arial" font-size="13px" font-style="normal" font-weight="normal" text-decoration="none" x="445" y="306.5">+msg: string</text></g></g><g transform="translate(-350,-30) scale(1,1)"><g><path fill="none" stroke="none"/><text fill="#000000" stroke="none" font-family="Arial" font-size="13px" font-style="normal" font-weight="normal" text-decoration="none" x="445" y="329.5">+DogNotFoundException(const string msg)</text></g></g><g transform="translate(-350,-30) scale(1,1)"><g><path fill="none" stroke="none"/><text fill="#000000" stroke="none" font-family="Arial" font-size="13px" font-style="normal" font-weight="normal" text-decoration="none" x="445" y="344.5">+what(): char*</text></g></g><g transform="translate(-350,-30) scale(1,1)"><rect fill="#C0C0C0" stroke="none" x="423" y="519" width="197.931640625" height="85" opacity="0.2"/></g><g transform="translate(-350,-30) scale(1,1)"><rect fill="#ffffff" stroke="none" x="416" y="512" width="197.931640625" height="85"/></g><g transform="translate(-350,-30) scale(1,1)"><path fill="none" stroke="#000000" d="M 416 512 L 613.931640625 512 L 613.931640625 597 L 416 597 L 416 512 Z Z" stroke-miterlimit="10"/></g><g transform="translate(-350,-30) scale(1,1)"><path fill="none" stroke="#000000" d="M 416 537 L 613.931640625 537" stroke-miterlimit="10"/></g><g transform="translate(-350,-30) scale(1,1)"><path fill="none" stroke="#000000" d="M 416 560 L 613.931640625 560" stroke-miterlimit="10"/></g><g transform="translate(-350,-30) scale(1,1)"><g><path fill="none" stroke="none"/><text fill="#000000" stroke="none" font-family="Arial" font-size="13px" font-style="normal" font-weight="bold" text-decoration="none" x="475.94677734375" y="531.5">FileException</text></g></g><g transform="translate(-350,-30) scale(1,1)"><g><path fill="none" stroke="none"/><text fill="#000000" stroke="none" font-family="Arial" font-size="13px" font-style="normal" font-weight="normal" text-decoration="none" x="421" y="554.5">+msg: string</text></g></g><g transform="translate(-350,-30) scale(1,1)"><g><path fill="none" stroke="none"/><text fill="#000000" stroke="none" font-family="Arial" font-size="13px" font-style="normal" font-weight="normal" text-decoration="none" x="421" y="577.5">+FileException(const string msg)</text></g></g><g transform="translate(-350,-30) scale(1,1)"><g><path fill="none" stroke="none"/><text fill="#000000" stroke="none" font-family="Arial" font-size="13px" font-style="normal" font-weight="normal" text-decoration="none" x="421" y="592.5">+what(): char*</text></g></g><g transform="translate(-350,-30) scale(1,1)"><rect fill="#C0C0C0" stroke="none" x="807" y="479" width="119" height="44" opacity="0.2"/></g><g transform="translate(-350,-30) scale(1,1)"><rect fill="#ffffff" stroke="none" x="800" y="472" width="119" height="44"/></g><g transform="translate(-350,-30) scale(1,1)"><path fill="none" stroke="#000000" d="M 800 472 L 919 472 L 919 516 L 800 516 L 800 472 Z Z" stroke-miterlimit="10"/></g><g transform="translate(-350,-30) scale(1,1)"><path fill="none" stroke="#000000" d="M 800 497 L 919 497" stroke-miterlimit="10"/></g><g transform="translate(-350,-30) scale(1,1)"><path fill="none" stroke="#000000" d="M 800 507 L 919 507" stroke-miterlimit="10"/></g><g transform="translate(-350,-30) scale(1,1)"><g><path fill="none" stroke="none"/><text fill="#000000" stroke="none" font-family="Arial" font-size="13px" font-style="normal" font-weight="bold" text-decoration="none" x="831.675048828125" y="491.5">exception</text></g></g><g transform="translate(-350,-30) scale(1,1)"><rect fill="#C0C0C0" stroke="none" x="1399" y="695" width="207" height="130" opacity="0.2"/></g><g transform="translate(-350,-30) scale(1,1)"><rect fill="#ffffff" stroke="none" x="1392" y="688" width="207" height="130"/></g><g transform="translate(-350,-30) scale(1,1)"><path fill="none" stroke="#000000" d="M 1392 688 L 1599 688 L 1599 818 L 1392 818 L 1392 688 Z Z" stroke-miterlimit="10"/></g><g transform="translate(-350,-30) scale(1,1)"><path fill="none" stroke="#000000" d="M 1392 713 L 1599 713" stroke-miterlimit="10"/></g><g transform="translate(-350,-30) scale(1,1)"><path fill="none" stroke="#000000" d="M 1392 736 L 1599 736" stroke-miterlimit="10"/></g><g transform="translate(-350,-30) scale(1,1)"><g><path fill="none" stroke="none"/><text fill="#000000" stroke="none" font-family="Arial" font-size="13px" font-style="normal" font-weight="bold" text-decoration="none" x="1453.957763671875" y="707.5">FileRepository</text></g></g><g transform="translate(-350,-30) scale(1,1)"><g><path fill="none" stroke="none"/><text fill="#000000" stroke="none" font-family="Arial" font-size="13px" font-style="normal" font-weight="normal" text-decoration="none" x="1397" y="730.5">+fileName: string</text></g></g><g transform="translate(-350,-30) scale(1,1)"><g><path fill="none" stroke="none"/><text fill="#000000" stroke="none" font-family="Arial" font-size="13px" font-style="normal" font-weight="normal" text-decoration="none" x="1397" y="753.5">+FileRepository()</text></g></g><g transform="translate(-350,-30) scale(1,1)"><g><path fill="none" stroke="none"/><text fill="#000000" stroke="none" font-family="Arial" font-size="13px" font-style="normal" font-weight="normal" text-decoration="none" x="1397" y="768.5">+~FileRepository()</text></g></g><g transform="translate(-350,-30) scale(1,1)"><g><path fill="none" stroke="none"/><text fill="#000000" stroke="none" font-family="Arial" font-size="13px" font-style="normal" font-weight="normal" text-decoration="none" x="1397" y="783.5">+displayList()</text></g></g><g transform="translate(-350,-30) scale(1,1)"><g><path fill="none" stroke="none"/><text fill="#000000" stroke="none" font-family="Arial" font-size="13px" font-style="normal" font-weight="normal" text-decoration="none" x="1397" y="798.5">+writeToFile()</text></g></g><g transform="translate(-350,-30) scale(1,1)"><g><path fill="none" stroke="none"/><text fill="#000000" stroke="none" font-family="Arial" font-size="13px" font-style="normal" font-weight="normal" text-decoration="none" x="1397" y="813.5">+loadFromFile()</text></g></g><g transform="translate(-350,-30) scale(1,1)"><rect fill="#C0C0C0" stroke="none" x="1599" y="855" width="175" height="127" opacity="0.2"/></g><g transform="translate(-350,-30) scale(1,1)"><rect fill="#ffffff" stroke="none" x="1592" y="848" width="175" height="127"/></g><g transform="translate(-350,-30) scale(1,1)"><path fill="none" stroke="#000000" d="M 1592 848 L 1767 848 L 1767 975 L 1592 975 L 1592 848 Z Z" stroke-miterlimit="10"/></g><g transform="translate(-350,-30) scale(1,1)"><path fill="none" stroke="#000000" d="M 1592 873 L 1767 873" stroke-miterlimit="10"/></g><g transform="translate(-350,-30) scale(1,1)"><path fill="none" stroke="#000000" d="M 1592 883 L 1767 883" stroke-miterlimit="10"/></g><g transform="translate(-350,-30) scale(1,1)"><g><path fill="none" stroke="none"/><text fill="#000000" stroke="none" font-family="Arial" font-size="13px" font-style="normal" font-weight="bold" text-decoration="none" x="1651.69091796875" y="867.5">HTMLList</text></g></g><g transform="translate(-350,-30) scale(1,1)"><g><path fill="none" stroke="none"/><text fill="#000000" stroke="none" font-family="Arial" font-size="13px" font-style="normal" font-weight="normal" text-decoration="none" x="1597" y="900.5">+HTMLList()</text></g></g><g transform="translate(-350,-30) scale(1,1)"><g><path fill="none" stroke="none"/><text fill="#000000" stroke="none" font-family="Arial" font-size="13px" font-style="normal" font-weight="normal" text-decoration="none" x="1597" y="915.5">+~HTMLList()</text></g></g><g transform="translate(-350,-30) scale(1,1)"><g><path fill="none" stroke="none"/><text fill="#000000" stroke="none" font-family="Arial" font-size="13px" font-style="normal" font-weight="normal" text-decoration="none" x="1597" y="930.5">+HTMLList(string name)</text></g></g><g transform="translate(-350,-30) scale(1,1)"><g><path fill="none" stroke="none"/><text fill="#000000" stroke="none" font-family="Arial" font-size="13px" font-style="normal" font-weight="normal" text-decoration="none" x="1597" y="945.5">+writeToFile()</text></g></g><g transform="translate(-350,-30) scale(1,1)"><g><path fill="none" stroke="none"/><text fill="#000000" stroke="none" font-family="Arial" font-size="13px" font-style="normal" font-weight="normal" text-decoration="none" x="1597" y="960.5">+displayList()</text></g></g><g transform="translate(-350,-30) scale(1,1)"><rect fill="#C0C0C0" stroke="none" x="1399" y="479" width="203.01611328125" height="145" opacity="0.2"/></g><g transform="translate(-350,-30) scale(1,1)"><rect fill="#ffffff" stroke="none" x="1392" y="472" width="203.01611328125" height="145"/></g><g transform="translate(-350,-30) scale(1,1)"><path fill="none" stroke="#000000" d="M 1392 472 L 1595.01611328125 472 L 1595.01611328125 617 L 1392 617 L 1392 472 Z Z" stroke-miterlimit="10"/></g><g transform="translate(-350,-30) scale(1,1)"><path fill="none" stroke="#000000" d="M 1392 497 L 1595.01611328125 497" stroke-miterlimit="10"/></g><g transform="translate(-350,-30) scale(1,1)"><path fill="none" stroke="#000000" d="M 1392 520 L 1595.01611328125 520" stroke-miterlimit="10"/></g><g transform="translate(-350,-30) scale(1,1)"><g><path fill="none" stroke="none"/><text fill="#000000" stroke="none" font-family="Arial" font-size="13px" font-style="normal" font-weight="bold" text-decoration="none" x="1462.439453125" y="491.5">Repository</text></g></g><g transform="translate(-350,-30) scale(1,1)"><g><path fill="none" stroke="none"/><text fill="#000000" stroke="none" font-family="Arial" font-size="13px" font-style="normal" font-weight="normal" text-decoration="none" x="1397" y="514.5">+dogs: DynamicVectorSTL&lt;Dog&gt;</text></g></g><g transform="translate(-350,-30) scale(1,1)"><g><path fill="none" stroke="none"/><text fill="#000000" stroke="none" font-family="Arial" font-size="13px" font-style="normal" font-weight="normal" text-decoration="none" x="1397" y="537.5">+Repository()</text></g></g><g transform="translate(-350,-30) scale(1,1)"><g><path fill="none" stroke="none"/><text fill="#000000" stroke="none" font-family="Arial" font-size="13px" font-style="normal" font-weight="normal" text-decoration="none" x="1397" y="552.5">+~Repository()</text></g></g><g transform="translate(-350,-30) scale(1,1)"><g><path fill="none" stroke="none"/><text fill="#000000" stroke="none" font-family="Arial" font-size="13px" font-style="normal" font-weight="normal" text-decoration="none" x="1397" y="567.5">+init(): void</text></g></g><g transform="translate(-350,-30) scale(1,1)"><g><path fill="none" stroke="none"/><text fill="#000000" stroke="none" font-family="Arial" font-size="13px" font-style="normal" font-weight="normal" text-decoration="none" x="1397" y="582.5">+add(Dog&amp; dog): void</text></g></g><g transform="translate(-350,-30) scale(1,1)"><g><path fill="none" stroke="none"/><text fill="#000000" stroke="none" font-family="Arial" font-size="13px" font-style="normal" font-weight="normal" text-decoration="none" x="1397" y="597.5">+remove(int index): void</text></g></g><g transform="translate(-350,-30) scale(1,1)"><g><path fill="none" stroke="none"/><text fill="#000000" stroke="none" font-family="Arial" font-size="13px" font-style="normal" font-weight="normal" text-decoration="none" x="1397" y="612.5">+update(int index, Dog&amp; d): void</text></g></g><g transform="translate(-350,-30) scale(1,1)"><rect fill="#C0C0C0" stroke="none" x="2423" y="623" width="367.033203125" height="265" opacity="0.2"/></g><g transform="translate(-350,-30) scale(1,1)"><rect fill="#ffffff" stroke="none" x="2416" y="616" width="367.033203125" height="265"/></g><g transform="translate(-350,-30) scale(1,1)"><path fill="none" stroke="#000000" d="M 2416 616 L 2783.033203125 616 L 2783.033203125 881 L 2416 881 L 2416 616 Z Z" stroke-miterlimit="10"/></g><g transform="translate(-350,-30) scale(1,1)"><path fill="none" stroke="#000000" d="M 2416 641 L 2783.033203125 641" stroke-miterlimit="10"/></g><g transform="translate(-350,-30) scale(1,1)"><path fill="none" stroke="#000000" d="M 2416 664 L 2783.033203125 664" stroke-miterlimit="10"/></g><g transform="translate(-350,-30) scale(1,1)"><g><path fill="none" stroke="none"/><text fill="#000000" stroke="none" font-family="Arial" font-size="13px" font-style="normal" font-weight="bold" text-decoration="none" x="2593.0166015625" y="635.5">UI</text></g></g><g transform="translate(-350,-30) scale(1,1)"><g><path fill="none" stroke="none"/><text fill="#000000" stroke="none" font-family="Arial" font-size="13px" font-style="normal" font-weight="normal" text-decoration="none" x="2421" y="658.5">+ctrl: Controller*</text></g></g><g transform="translate(-350,-30) scale(1,1)"><g><path fill="none" stroke="none"/><text fill="#000000" stroke="none" font-family="Arial" font-size="13px" font-style="normal" font-weight="normal" text-decoration="none" x="2421" y="681.5">+UI(Controller* ctrl)</text></g></g><g transform="translate(-350,-30) scale(1,1)"><g><path fill="none" stroke="none"/><text fill="#000000" stroke="none" font-family="Arial" font-size="13px" font-style="normal" font-weight="normal" text-decoration="none" x="2421" y="696.5">+~UI()</text></g></g><g transform="translate(-350,-30) scale(1,1)"><g><path fill="none" stroke="none"/><text fill="#000000" stroke="none" font-family="Arial" font-size="13px" font-style="normal" font-weight="normal" text-decoration="none" x="2421" y="711.5">+start(): void</text></g></g><g transform="translate(-350,-30) scale(1,1)"><g><path fill="none" stroke="none"/><text fill="#000000" stroke="none" font-family="Arial" font-size="13px" font-style="normal" font-weight="normal" text-decoration="none" x="2421" y="726.5">-printCommandsAdmin(): void</text></g></g><g transform="translate(-350,-30) scale(1,1)"><g><path fill="none" stroke="none"/><text fill="#000000" stroke="none" font-family="Arial" font-size="13px" font-style="normal" font-weight="normal" text-decoration="none" x="2421" y="741.5">-printCommandsUser(): void</text></g></g><g transform="translate(-350,-30) scale(1,1)"><g><path fill="none" stroke="none"/><text fill="#000000" stroke="none" font-family="Arial" font-size="13px" font-style="normal" font-weight="normal" text-decoration="none" x="2421" y="756.5">-add(): void</text></g></g><g transform="translate(-350,-30) scale(1,1)"><g><path fill="none" stroke="none"/><text fill="#000000" stroke="none" font-family="Arial" font-size="13px" font-style="normal" font-weight="normal" text-decoration="none" x="2421" y="771.5">-remove(): void</text></g></g><g transform="translate(-350,-30) scale(1,1)"><g><path fill="none" stroke="none"/><text fill="#000000" stroke="none" font-family="Arial" font-size="13px" font-style="normal" font-weight="normal" text-decoration="none" x="2421" y="786.5">-update(): void</text></g></g><g transform="translate(-350,-30) scale(1,1)"><g><path fill="none" stroke="none"/><text fill="#000000" stroke="none" font-family="Arial" font-size="13px" font-style="normal" font-weight="normal" text-decoration="none" x="2421" y="801.5">-listAll(Repository* repo): void</text></g></g><g transform="translate(-350,-30) scale(1,1)"><g><path fill="none" stroke="none"/><text fill="#000000" stroke="none" font-family="Arial" font-size="13px" font-style="normal" font-weight="normal" text-decoration="none" x="2421" y="816.5">-startUser(): void</text></g></g><g transform="translate(-350,-30) scale(1,1)"><g><path fill="none" stroke="none"/><text fill="#000000" stroke="none" font-family="Arial" font-size="13px" font-style="normal" font-weight="normal" text-decoration="none" x="2421" y="831.5">-startAdmin(): void</text></g></g><g transform="translate(-350,-30) scale(1,1)"><g><path fill="none" stroke="none"/><text fill="#000000" stroke="none" font-family="Arial" font-size="13px" font-style="normal" font-weight="normal" text-decoration="none" x="2421" y="846.5">-showAll(Repository* repo, FileRepository* adoptionList): void</text></g></g><g transform="translate(-350,-30) scale(1,1)"><g><path fill="none" stroke="none"/><text fill="#000000" stroke="none" font-family="Arial" font-size="13px" font-style="normal" font-weight="normal" text-decoration="none" x="2421" y="861.5">-showFiltered(FileRepository* adoptionList): void</text></g></g><g transform="translate(-350,-30) scale(1,1)"><g><path fill="none" stroke="none"/><text fill="#000000" stroke="none" font-family="Arial" font-size="13px" font-style="normal" font-weight="normal" text-decoration="none" x="2421" y="876.5">-adopt(FileRepository adoptionList): void</text></g></g><g transform="translate(-350,-30) scale(1,1)"><path fill="none" stroke="#000000" d="M 1494 687 L 1494 618" stroke-miterlimit="10"/></g><g transform="translate(-350,-30) scale(1,1)"><path fill="#FFFFFF" stroke="none" d="M 1502.419035512032 638.3253497152483 L 1494 618 L 1485.580964487968 638.3253497152483"/></g><g transform="translate(-350,-30) scale(1,1)"><path fill="none" stroke="#000000" d="M 1502.419035512032 638.3253497152483 L 1494 618 L 1485.580964487968 638.3253497152483 L 1502.419035512032 638.3253497152483" stroke-miterlimit="10"/></g><g transform="translate(-350,-30) scale(1,1)"><rect fill="#C0C0C0" stroke="none" x="743" y="271" width="228.29248046875" height="100" opacity="0.2"/></g><g transform="translate(-350,-30) scale(1,1)"><rect fill="#ffffff" stroke="none" x="736" y="264" width="228.29248046875" height="100"/></g><g transform="translate(-350,-30) scale(1,1)"><path fill="none" stroke="#000000" d="M 736 264 L 964.29248046875 264 L 964.29248046875 364 L 736 364 L 736 264 Z Z" stroke-miterlimit="10"/></g><g transform="translate(-350,-30) scale(1,1)"><path fill="none" stroke="#000000" d="M 736 289 L 964.29248046875 289" stroke-miterlimit="10"/></g><g transform="translate(-350,-30) scale(1,1)"><path fill="none" stroke="#000000" d="M 736 327 L 964.29248046875 327" stroke-miterlimit="10"/></g><g transform="translate(-350,-30) scale(1,1)"><g><path fill="none" stroke="none"/><text fill="#000000" stroke="none" font-family="Arial" font-size="13px" font-style="normal" font-weight="bold" text-decoration="none" x="795.94677734375" y="283.5">ValidatorException</text></g></g><g transform="translate(-350,-30) scale(1,1)"><g><path fill="none" stroke="none"/><text fill="#000000" stroke="none" font-family="Arial" font-size="13px" font-style="normal" font-weight="normal" text-decoration="none" x="741" y="306.5">+printable: string</text></g></g><g transform="translate(-350,-30) scale(1,1)"><g><path fill="none" stroke="none"/><text fill="#000000" stroke="none" font-family="Arial" font-size="13px" font-style="normal" font-weight="normal" text-decoration="none" x="741" y="321.5">+errors: vector&lt;string&gt;</text></g></g><g transform="translate(-350,-30) scale(1,1)"><g><path fill="none" stroke="none"/><text fill="#000000" stroke="none" font-family="Arial" font-size="13px" font-style="normal" font-weight="normal" text-decoration="none" x="741" y="344.5">+ValidatorException(const string msg)</text></g></g><g transform="translate(-350,-30) scale(1,1)"><g><path fill="none" stroke="none"/><text fill="#000000" stroke="none" font-family="Arial" font-size="13px" font-style="normal" font-weight="normal" text-decoration="none" x="741" y="359.5">+what(): char*</text></g></g><g transform="translate(-350,-30) scale(1,1)"><rect fill="#C0C0C0" stroke="none" x="1023" y="183" width="177.71435546875" height="72" opacity="0.2"/></g><g transform="translate(-350,-30) scale(1,1)"><rect fill="#ffffff" stroke="none" x="1016" y="176" width="177.71435546875" height="72"/></g><g transform="translate(-350,-30) scale(1,1)"><path fill="none" stroke="#000000" d="M 1016 176 L 1193.71435546875 176 L 1193.71435546875 248 L 1016 248 L 1016 176 Z Z" stroke-miterlimit="10"/></g><g transform="translate(-350,-30) scale(1,1)"><path fill="none" stroke="#000000" d="M 1016 201 L 1193.71435546875 201" stroke-miterlimit="10"/></g><g transform="translate(-350,-30) scale(1,1)"><path fill="none" stroke="#000000" d="M 1016 211 L 1193.71435546875 211" stroke-miterlimit="10"/></g><g transform="translate(-350,-30) scale(1,1)"><g><path fill="none" stroke="none"/><text fill="#000000" stroke="none" font-family="Arial" font-size="13px" font-style="normal" font-weight="bold" text-decoration="none" x="1079.203125" y="195.5">Validator</text></g></g><g transform="translate(-350,-30) scale(1,1)"><g><path fill="none" stroke="none"/><text fill="#000000" stroke="none" font-family="Arial" font-size="13px" font-style="normal" font-weight="normal" text-decoration="none" x="1021" y="228.5">+Validator()</text></g></g><g transform="translate(-350,-30) scale(1,1)"><g><path fill="none" stroke="none"/><text fill="#000000" stroke="none" font-family="Arial" font-size="13px" font-style="normal" font-weight="normal" text-decoration="none" x="1021" y="243.5">+validate(Dog&amp; s): static void</text></g></g><g transform="translate(-350,-30) scale(1,1)"><path fill="none" stroke="#000000" d="M 1498 381 L 1495 471" stroke-miterlimit="10"/></g><g transform="translate(-350,-30) scale(1,1)"><path fill="none" stroke="#000000" d="M 1195 212 L 1287 211" stroke-miterlimit="10" stroke-dasharray="3"/></g><g transform="translate(-350,-30) scale(1,1)"><path fill="none" stroke="#000000" d="M 1276.8836783613006 215.3197264383735 L 1287 211 L 1276.7921725111667 206.9011882260562" stroke-miterlimit="10"/></g><g transform="translate(-350,-30) scale(1,1)"><path fill="none" stroke="#000000" d="M 638 352 L 823 471" stroke-miterlimit="10"/></g><g transform="translate(-350,-30) scale(1,1)"><path fill="#FFFFFF" stroke="none" d="M 801.3511645470255 467.0849107890067 L 823 471 L 810.4603477764537 452.9235755163664"/></g><g transform="translate(-350,-30) scale(1,1)"><path fill="none" stroke="#000000" d="M 801.3511645470255 467.0849107890067 L 823 471 L 810.4603477764537 452.9235755163664 L 801.3511645470255 467.0849107890067" stroke-miterlimit="10"/></g><g transform="translate(-350,-30) scale(1,1)"><path fill="none" stroke="#000000" d="M 853 365 L 858 471" stroke-miterlimit="10"/></g><g transform="translate(-350,-30) scale(1,1)"><path fill="#FFFFFF" stroke="none" d="M 848.6326369362937 451.0939077357531 L 858 471 L 865.452006882791 450.3005412288428"/></g><g transform="translate(-350,-30) scale(1,1)"><path fill="none" stroke="#000000" d="M 848.6326369362937 451.0939077357531 L 858 471 L 865.452006882791 450.3005412288428 L 848.6326369362937 451.0939077357531" stroke-miterlimit="10"/></g><g transform="translate(-350,-30) scale(1,1)"><path fill="none" stroke="#000000" d="M 616 450 L 799 483" stroke-miterlimit="10"/></g><g transform="translate(-350,-30) scale(1,1)"><path fill="#FFFFFF" stroke="none" d="M 777.5031856260332 487.67835139458504 L 799 483 L 780.491362786375 471.1075507781443"/></g><g transform="translate(-350,-30) scale(1,1)"><path fill="none" stroke="#000000" d="M 777.5031856260332 487.67835139458504 L 799 483 L 780.491362786375 471.1075507781443 L 777.5031856260332 487.67835139458504" stroke-miterlimit="10"/></g><g transform="translate(-350,-30) scale(1,1)"><path fill="none" stroke="#000000" d="M 615 536 L 799 504" stroke-miterlimit="10"/></g><g transform="translate(-350,-30) scale(1,1)"><path fill="#FFFFFF" stroke="none" d="M 780.4177539746207 515.7771020481388 L 799 504 L 777.5326991048127 499.1880365467424"/></g><g transform="translate(-350,-30) scale(1,1)"><path fill="none" stroke="#000000" d="M 780.4177539746207 515.7771020481388 L 799 504 L 777.5326991048127 499.1880365467424 L 780.4177539746207 515.7771020481388" stroke-miterlimit="10"/></g><g transform="translate(-350,-30) scale(1,1)"><path fill="none" stroke="#000000" d="M 1400 847 L 1428 819" stroke-miterlimit="10"/></g><g transform="translate(-350,-30) scale(1,1)"><path fill="#FFFFFF" stroke="none" d="M 1419.580964487968 839.3253497152483 L 1428 819 L 1407.6746502847518 827.419035512032"/></g><g transform="translate(-350,-30) scale(1,1)"><path fill="none" stroke="#000000" d="M 1419.580964487968 839.3253497152483 L 1428 819 L 1407.6746502847518 827.419035512032 L 1419.580964487968 839.3253497152483" stroke-miterlimit="10"/></g><g transform="translate(-350,-30) scale(1,1)"><path fill="none" stroke="#000000" d="M 1604 847 L 1572 819" stroke-miterlimit="10"/></g><g transform="translate(-350,-30) scale(1,1)"><path fill="#FFFFFF" stroke="none" d="M 1592.8403581859448 826.0483665257652 L 1572 819 L 1581.7524108289813 838.7203063622949"/></g><g transform="translate(-350,-30) scale(1,1)"><path fill="none" stroke="#000000" d="M 1592.8403581859448 826.0483665257652 L 1572 819 L 1581.7524108289813 838.7203063622949 L 1592.8403581859448 826.0483665257652" stroke-miterlimit="10"/></g><g transform="translate(-350,-30) scale(1,1)"><path fill="none" stroke="#000000" d="M 2311 746 L 2415 747" stroke-miterlimit="10"/></g><g transform="translate(-350,-30) scale(1,1)"><path fill="#000000" stroke="none" d="M 2404.7973206467345 751.1116096622189 L 2415 747 L 2404.878269169287 742.6929633167813 L 2393.0010169413185 746.7884713167434"/></g><g transform="translate(-350,-30) scale(1,1)"><path fill="none" stroke="#000000" d="M 2404.7973206467345 751.1116096622189 L 2415 747 L 2404.878269169287 742.6929633167813 L 2393.0010169413185 746.7884713167434 L 2404.7973206467345 751.1116096622189" stroke-miterlimit="10"/></g><g transform="translate(-350,-30) scale(1,1)"><path fill="none" stroke="#000000" d="M 1600 751 L 1695 749" stroke-miterlimit="10"/></g><g transform="translate(-350,-30) scale(1,1)"><path fill="#000000" stroke="none" d="M 1684.9281783042093 753.422488861286 L 1695 749 L 1684.7509747164672 745.0053184435419 L 1673.004873726245 749.4630552899738"/></g><g transform="translate(-350,-30) scale(1,1)"><path fill="none" stroke="#000000" d="M 1684.9281783042093 753.422488861286 L 1695 749 L 1684.7509747164672 745.0053184435419 L 1673.004873726245 749.4630552899738 L 1684.9281783042093 753.422488861286" stroke-miterlimit="10"/></g><g transform="translate(-350,-30) scale(1,1)"><path fill="none" stroke="#000000" d="M 1911 425 L 1596 515" stroke-miterlimit="10"/></g><g transform="translate(-350,-30) scale(1,1)"><path fill="#000000" stroke="none" d="M 1604.6152117818563 508.1605463702305 L 1596 515 L 1606.9280987135296 516.2556506310877 L 1617.1535268480982 508.9561351862577"/></g><g transform="translate(-350,-30) scale(1,1)"><path fill="none" stroke="#000000" d="M 1604.6152117818563 508.1605463702305 L 1596 515 L 1606.9280987135296 516.2556506310877 L 1617.1535268480982 508.9561351862577 L 1604.6152117818563 508.1605463702305" stroke-miterlimit="10"/></g><g transform="translate(-350,-30) scale(1,1)"><path fill="none" stroke="#000000" d="M 1015 248 L 965 268" stroke-miterlimit="10"/></g></g></svg>